# File generated by ImageToStl.com - Free Image and 3D model conversion tools

o obj1
v -7.00000048 10 -7.00000048
v -7.00000048 10 7.00000048
v 0 3 0
v 10 7.00000048 -7.00000048
v 10 7.00000048 7.00000048
v 3 0 0
v -7.00000048 7.00000048 -10
v 7.00000048 7.00000048 -10
v 0 0 -3
v -10 -7.00000048 -7.00000048
v -10 -7.00000048 7.00000048
v -3 0 0
v 7.00000048 7.00000048 10
v -7.00000048 7.00000048 10
v 0 0 3
v 10 10 -10
v 10 10 10
v 10 -7.00000048 -7.00000048
v 10 -10 -10
v 10 -7.00000048 7.00000048
v 10 -10 10
v -10 10 -10
v -10 10 10
v 7.00000048 10 -7.00000048
v 7.00000048 10 7.00000048
v -7.00000048 -7.00000048 10
v -10 -10 10
v 7.00000048 -7.00000048 10
v -10 7.00000048 -7.00000048
v -10 -10 -10
v -10 7.00000048 7.00000048
v -7.00000048 -10 -7.00000048
v -7.00000048 -10 7.00000048
v 7.00000048 -10 7.00000048
v 7.00000048 -10 -7.00000048
v -7.00000048 -7.00000048 -10
v 7.00000048 -7.00000048 -10
v 0 -3 0
vn 0.70711 0.70711 0
vn 0.70711 -0.70711 0
vn 0 -0.70711 -0.70711
vn -0.70711 0.70711 0
vn 0 -0.70711 0.70711
vn 1 0 0
vn 1 -0 0
vn 1 0 0
vn 1 0 0
vn 1 -0 0
vn 1 0 0
vn 0 1 0
vn 0 1 0
vn 0 1 -0
vn 0 1 0
vn 0 1 0
vn 0 1 -0
vn -0 0 1
vn 0 0 1
vn 0 0 1
vn 0 0 1
vn 0 0 1
vn -0 0 1
vn -1 0 0
vn -1 0 0
vn -1 -0 0
vn -1 0 0
vn -1 0 0
vn -1 -0 0
vn 0 -1 0
vn 0 -1 0
vn 0 -1 -0
vn 0 -1 0
vn 0 -1 0
vn 0 -1 -0
vn -0 0 -1
vn 0 0 -1
vn 0 0 -1
vn 0 0 -1
vn 0 0 -1
vn -0 0 -1
vn -0.70711 -0.70711 0
vn 0 -0.70711 -0.70711
vn 0.70711 -0.70711 0
vn 0 -0.70711 0.70711
vn -0.70711 0 -0.70711
vn -0.70711 -0.70711 0
vn -0.70711 0 0.70711
vn 0 0.70711 -0.70711
vn -0.70711 0.70711 0
vn 0 0.70711 0.70711
vn 0.70711 0 -0.70711
vn 0.70711 0.70711 0
vn 0.70711 0 0.70711
vn -0.70711 0 -0.70711
vn 0 0.70711 -0.70711
vn 0.70711 0 -0.70711
vn 0.70711 0 0.70711
vn 0 0.70711 0.70711
vn -0.70711 0 0.70711
f 1//1 2//1 3//1
f 4//2 5//2 6//2
f 7//3 8//3 9//3
f 10//4 11//4 12//4
f 13//5 14//5 15//5
f 5//6 4//6 16//6
f 16//7 17//7 5//7
f 4//8 18//8 19//8
f 19//9 16//9 4//9
f 20//8 5//8 17//8
f 17//9 21//9 20//9
f 18//10 20//10 21//10
f 21//11 19//11 18//11
f 2//12 1//12 22//12
f 22//13 23//13 2//13
f 1//14 24//14 16//14
f 16//15 22//15 1//15
f 25//16 2//16 23//16
f 23//17 17//17 25//17
f 24//12 25//12 17//12
f 17//13 16//13 24//13
f 26//18 14//18 23//18
f 23//19 27//19 26//19
f 14//20 13//20 17//20
f 17//21 23//21 14//21
f 13//22 28//22 21//22
f 21//23 17//23 13//23
f 28//20 26//20 27//20
f 27//21 21//21 28//21
f 10//24 29//24 22//24
f 22//25 30//25 10//25
f 11//26 10//26 30//26
f 30//27 27//27 11//27
f 31//24 11//24 27//24
f 27//25 23//25 31//25
f 29//28 31//28 23//28
f 23//29 22//29 29//29
f 32//30 33//30 27//30
f 27//31 30//31 32//31
f 34//30 35//30 19//30
f 19//31 21//31 34//31
f 35//32 32//32 30//32
f 30//33 19//33 35//33
f 33//34 34//34 21//34
f 21//35 27//35 33//35
f 7//36 36//36 30//36
f 30//37 22//37 7//37
f 8//38 7//38 22//38
f 22//39 16//39 8//39
f 37//40 8//40 16//40
f 16//41 19//41 37//41
f 36//38 37//38 19//38
f 19//39 30//39 36//39
f 35//42 34//42 38//42
f 34//43 33//43 38//43
f 33//44 32//44 38//44
f 32//45 35//45 38//45
f 11//46 31//46 12//46
f 31//47 29//47 12//47
f 29//48 10//48 12//48
f 2//49 25//49 3//49
f 25//50 24//50 3//50
f 24//51 1//51 3//51
f 5//52 20//52 6//52
f 20//53 18//53 6//53
f 18//54 4//54 6//54
f 8//55 37//55 9//55
f 37//56 36//56 9//56
f 36//57 7//57 9//57
f 14//58 26//58 15//58
f 26//59 28//59 15//59
f 28//60 13//60 15//60
# Vertices: 38, normals: 60, texture coordinates: 0, faces: 72

